<svg width="20.000000" height="18.000000" viewBox="0 0 20 18" fill="none" xmlns="http://www.w3.org/2000/svg" xmlns:xlink="http://www.w3.org/1999/xlink">
	<path d="M18 2L14.83 2L13.59 0.64C13.22 0.23 12.68 0 12.12 0L7.88 0C7.31 0 6.78 0.23 6.4 0.64L5.17 2L2 2C0.9 2 0 2.89 0 4L0 16C0 17.1 0.9 18 2 18L18 18C19.1 18 20 17.1 20 16L20 4C20 2.89 19.1 2 18 2ZM10 15C7.23 15 5 12.76 5 10C5 7.23 7.23 5 10 5C12.76 5 15 7.23 15 10C15 12.76 12.76 15 10 15Z" fill="#18181b" fill-opacity="1.000000" fill-rule="nonzero"/>
</svg>
